# xmcd
#
# Track frame offsets: 
#        150
#        21420
#        46206
#        62731
#        73352
#        96953
#        106032
#        131114
#        165490
#        179653
#        202849
#        237373
#        241503
#        274257
#        299044
#        305388
#
# Disc length: 4292 seconds
#
# Revision: 0
# Processed by: cddbd v1.5.2PL0 Copyright (c) Steve Scherf et al.
# Submitted via: ExactAudioCopyFreeDBPlugin 1.0
#
DISCID=ec10c210
DTITLE=Guy Gerber - Fabric 64
DYEAR=2012
DGENRE=Electronic
TTITLE0=Store-House Consciousness
TTITLE1=The Golden Sun And The Silver Moon
TTITLE2=Shady Triangle
TTITLE3=The Naked Hairdresser
TTITLE4=Ribbons Turn To Chains
TTITLE5=The Rhythm
TTITLE6=A Blade Through My Piano
TTITLE7=One Day In May
TTITLE8=Guy Gerber feat. Clarian North - Howling Moon
TTITLE9=Guy Gerber feat. Clarian North - Running Through The Night
TTITLE10=Guy Gerber feat. Lady Falkor - Lady Falkor
TTITLE11=The Money Shot
TTITLE12=Moon Blur
TTITLE13=My Medicine
TTITLE14=Human Raft
TTITLE15=Guy Gerber with Deniz Kurtel - Just Wanna See You Happy
EXTD=
EXTT0=
EXTT1=
EXTT2=
EXTT3=
EXTT4=
EXTT5=
EXTT6=
EXTT7=
EXTT8=
EXTT9=
EXTT10=
EXTT11=
EXTT12=
EXTT13=
EXTT14=
EXTT15=
PLAYORDER=
